<svg width="18" height="18" viewBox="0 0 18 18" fill="none" xmlns="http://www.w3.org/2000/svg">
<path d="M5.44049 13.8705L5.98349 14.1877C6.89916 14.7219 7.94067 15.0023 9.00074 15C10.1874 15 11.3475 14.6481 12.3342 13.9888C13.3209 13.3295 14.0899 12.3925 14.544 11.2961C14.9981 10.1997 15.117 8.99334 14.8855 7.82946C14.6539 6.66557 14.0825 5.59647 13.2434 4.75736C12.4043 3.91824 11.3352 3.3468 10.1713 3.11529C9.0074 2.88378 7.801 3.0026 6.70464 3.45672C5.60829 3.91085 4.67121 4.67988 4.01193 5.66658C3.35264 6.65327 3.00074 7.81331 3.00074 9C2.99856 10.0604 3.2792 11.1022 3.81374 12.018L4.13024 12.561L3.64049 14.3617L5.44049 13.8705ZM1.50374 16.5L2.51774 12.774C1.84946 11.6287 1.49842 10.326 1.50074 9C1.50074 4.85775 4.85849 1.5 9.00074 1.5C13.143 1.5 16.5007 4.85775 16.5007 9C16.5007 13.1423 13.143 16.5 9.00074 16.5C7.67531 16.5023 6.37318 16.1515 5.22824 15.4838L1.50374 16.5ZM6.29399 5.481C6.39499 5.474 6.49574 5.473 6.59624 5.478C6.63674 5.481 6.67724 5.485 6.71774 5.49C6.83699 5.5035 6.96824 5.57625 7.01249 5.67675C7.23599 6.18425 7.45299 6.69425 7.66349 7.20675C7.70999 7.32075 7.68224 7.467 7.59374 7.6095C7.54874 7.68225 7.47824 7.78425 7.39649 7.8885C7.31174 7.99725 7.12949 8.19675 7.12949 8.19675C7.12949 8.19675 7.05524 8.28525 7.08374 8.3955C7.09424 8.4375 7.12874 8.49825 7.16024 8.54925L7.20449 8.6205C7.39649 8.94075 7.65449 9.2655 7.96949 9.5715C8.05949 9.6585 8.14724 9.74775 8.24174 9.831C8.59274 10.1407 8.99024 10.3935 9.41924 10.581L9.42299 10.5825C9.48674 10.6102 9.51899 10.6252 9.61199 10.665C9.65849 10.6845 9.70624 10.701 9.75524 10.7145C9.77324 10.7195 9.79149 10.7222 9.80999 10.7227C9.85276 10.7244 9.89528 10.7155 9.93384 10.697C9.9724 10.6784 10.0058 10.6507 10.0312 10.6163C10.5735 9.95925 10.6237 9.9165 10.6275 9.9165V9.918C10.6652 9.88273 10.71 9.85598 10.7589 9.83954C10.8078 9.82311 10.8597 9.81738 10.911 9.82275C10.957 9.82475 11.0012 9.83475 11.0437 9.85275C11.442 10.035 12.0937 10.3193 12.0937 10.3193L12.5302 10.515C12.6037 10.5503 12.6705 10.6335 12.6727 10.7137C12.6757 10.764 12.6802 10.845 12.663 10.9935C12.639 11.1877 12.5805 11.421 12.522 11.5433C12.4814 11.6264 12.4283 11.7028 12.3645 11.7697C12.2888 11.8491 12.2059 11.9214 12.117 11.9858C12.055 12.0317 12.0237 12.0542 12.0232 12.0532C11.93 12.1125 11.8341 12.1675 11.736 12.2183C11.5428 12.3206 11.3296 12.3795 11.1112 12.3907C10.9725 12.3982 10.8337 12.4087 10.6942 12.4012C10.6882 12.4012 10.2682 12.336 10.2682 12.336C9.20195 12.0555 8.21582 11.5301 7.38824 10.8015C7.21874 10.6523 7.06124 10.4917 6.90074 10.332C6.23474 9.66825 5.72999 8.952 5.42324 8.2755C5.26762 7.94342 5.18331 7.58241 5.17574 7.21575C5.17292 6.76031 5.32204 6.31693 5.59949 5.95575C5.65424 5.88525 5.70599 5.81175 5.79524 5.727C5.88974 5.637 5.95049 5.589 6.01574 5.556C6.10277 5.51325 6.19727 5.48778 6.29399 5.481Z" fill="white"/>
</svg>
